<mxfile host="app.diagrams.net" agent="Mozilla/5.0 (Windows NT 10.0; Win64; x64) AppleWebKit/537.36 (KHTML, like Gecko) Chrome/129.0.0.0 Safari/537.36 Edg/129.0.0.0" version="24.7.17">
  <diagram name="Page-1" id="5f0bae14-7c28-e335-631c-24af17079c00">
    <mxGraphModel dx="828" dy="971" grid="1" gridSize="10" guides="1" tooltips="1" connect="1" arrows="1" fold="1" page="1" pageScale="1" pageWidth="1100" pageHeight="850" background="none" math="0" shadow="0">
      <root>
        <mxCell id="0" />
        <mxCell id="1" parent="0" />
        <mxCell id="7FLnaC97h_BSsy49s6N0-12" value="&lt;br&gt;&lt;b&gt;&amp;lt;&amp;lt;Services&amp;gt;&amp;gt;&lt;/b&gt;" style="html=1;dropTarget=0;whiteSpace=wrap;" vertex="1" parent="1">
          <mxGeometry x="620" y="160" width="110" height="80" as="geometry" />
        </mxCell>
        <mxCell id="7FLnaC97h_BSsy49s6N0-13" value="" style="shape=module;jettyWidth=8;jettyHeight=4;" vertex="1" parent="7FLnaC97h_BSsy49s6N0-12">
          <mxGeometry x="1" width="20" height="20" relative="1" as="geometry">
            <mxPoint x="-27" y="7" as="offset" />
          </mxGeometry>
        </mxCell>
        <mxCell id="7FLnaC97h_BSsy49s6N0-14" value="" style="shape=folder;fontStyle=1;spacingTop=10;tabWidth=40;tabHeight=14;tabPosition=left;html=1;whiteSpace=wrap;" vertex="1" parent="1">
          <mxGeometry x="70" y="540" width="240" height="160" as="geometry" />
        </mxCell>
        <mxCell id="7FLnaC97h_BSsy49s6N0-15" value="Services&lt;div&gt;&lt;br&gt;&lt;/div&gt;" style="text;strokeColor=none;align=center;fillColor=none;html=1;verticalAlign=middle;whiteSpace=wrap;rounded=0;fontSize=16;" vertex="1" parent="1">
          <mxGeometry x="140" y="570" width="100" height="20" as="geometry" />
        </mxCell>
        <mxCell id="7FLnaC97h_BSsy49s6N0-16" value="API Gateway" style="shape=module;align=left;spacingLeft=20;align=center;verticalAlign=top;whiteSpace=wrap;html=1;" vertex="1" parent="1">
          <mxGeometry x="90" y="620" width="80" height="45" as="geometry" />
        </mxCell>
        <mxCell id="7FLnaC97h_BSsy49s6N0-18" value="Microservicio" style="shape=module;align=left;spacingLeft=20;align=center;verticalAlign=top;whiteSpace=wrap;html=1;" vertex="1" parent="1">
          <mxGeometry x="200" y="620" width="100" height="45" as="geometry" />
        </mxCell>
        <mxCell id="7FLnaC97h_BSsy49s6N0-19" value="" style="shape=folder;fontStyle=1;spacingTop=10;tabWidth=40;tabHeight=14;tabPosition=left;html=1;whiteSpace=wrap;" vertex="1" parent="1">
          <mxGeometry x="70" y="240" width="240" height="160" as="geometry" />
        </mxCell>
        <mxCell id="7FLnaC97h_BSsy49s6N0-20" value="Infraestructura" style="text;strokeColor=none;align=center;fillColor=none;html=1;verticalAlign=middle;whiteSpace=wrap;rounded=0;fontSize=16;" vertex="1" parent="1">
          <mxGeometry x="160" y="250" width="60" height="30" as="geometry" />
        </mxCell>
        <mxCell id="7FLnaC97h_BSsy49s6N0-21" value="Docker-Compose" style="shape=module;align=left;spacingLeft=20;align=center;verticalAlign=top;whiteSpace=wrap;html=1;" vertex="1" parent="1">
          <mxGeometry x="90" y="310" width="90" height="50" as="geometry" />
        </mxCell>
        <mxCell id="7FLnaC97h_BSsy49s6N0-22" value="Kubernetes" style="shape=module;align=left;spacingLeft=20;align=center;verticalAlign=top;whiteSpace=wrap;html=1;" vertex="1" parent="1">
          <mxGeometry x="200" y="310" width="90" height="50" as="geometry" />
        </mxCell>
        <mxCell id="7FLnaC97h_BSsy49s6N0-28" style="edgeStyle=none;curved=1;rounded=0;orthogonalLoop=1;jettySize=auto;html=1;fontSize=12;startSize=8;endSize=8;" edge="1" parent="1" source="7FLnaC97h_BSsy49s6N0-26" target="7FLnaC97h_BSsy49s6N0-19">
          <mxGeometry relative="1" as="geometry" />
        </mxCell>
        <mxCell id="7FLnaC97h_BSsy49s6N0-26" value="Actor" style="shape=umlActor;verticalLabelPosition=bottom;verticalAlign=top;html=1;" vertex="1" parent="1">
          <mxGeometry x="520" y="290" width="30" height="60" as="geometry" />
        </mxCell>
        <mxCell id="7FLnaC97h_BSsy49s6N0-27" value="Dev" style="text;strokeColor=none;align=center;fillColor=none;html=1;verticalAlign=middle;whiteSpace=wrap;rounded=0;fontSize=16;" vertex="1" parent="1">
          <mxGeometry x="505" y="260" width="60" height="30" as="geometry" />
        </mxCell>
        <mxCell id="7FLnaC97h_BSsy49s6N0-30" style="edgeStyle=none;curved=1;rounded=0;orthogonalLoop=1;jettySize=auto;html=1;fontSize=12;startSize=8;endSize=8;" edge="1" parent="1" source="7FLnaC97h_BSsy49s6N0-29" target="7FLnaC97h_BSsy49s6N0-19">
          <mxGeometry relative="1" as="geometry" />
        </mxCell>
        <mxCell id="7FLnaC97h_BSsy49s6N0-29" value="" style="shape=providedRequiredInterface;html=1;verticalLabelPosition=bottom;sketch=0;rotation=90;" vertex="1" parent="1">
          <mxGeometry x="180" y="450" width="20" height="20" as="geometry" />
        </mxCell>
        <mxCell id="7FLnaC97h_BSsy49s6N0-31" style="edgeStyle=none;curved=1;rounded=0;orthogonalLoop=1;jettySize=auto;html=1;entryX=0.5;entryY=0.125;entryDx=0;entryDy=0;entryPerimeter=0;fontSize=12;startSize=8;endSize=8;" edge="1" parent="1" source="7FLnaC97h_BSsy49s6N0-29" target="7FLnaC97h_BSsy49s6N0-14">
          <mxGeometry relative="1" as="geometry" />
        </mxCell>
      </root>
    </mxGraphModel>
  </diagram>
</mxfile>
